IKResults
version=1
nRows=10
nColumns=40
inDegrees=yes

Units are S.I. units (second, meters, Newtons, ...)
Angles are in degrees.

endheader
time	pelvis_tilt	pelvis_list	pelvis_rotation	pelvis_tx	pelvis_ty	pelvis_tz	hip_flexion_r	hip_adduction_r	hip_rotation_r	knee_angle_r	knee_angle_r_beta	ankle_angle_r	subtalar_angle_r	mtp_angle_r	hip_flexion_l	hip_adduction_l	hip_rotation_l	knee_angle_l	knee_angle_l_beta	ankle_angle_l	subtalar_angle_l	mtp_angle_l	lumbar_extension	lumbar_bending	lumbar_rotation	arm_flex_r	arm_add_r	arm_rot_r	elbow_flex_r	pro_sup_r	wrist_flex_r	wrist_dev_r	arm_flex_l	arm_add_l	arm_rot_l	elbow_flex_l	pro_sup_l	wrist_flex_l	wrist_dev_l
      0.47000000	     15.32797352	     -2.00997247	     -0.24596464	     -0.03370783	      0.94986107	      1.44979138	    -18.14316506	      5.06741556	    -11.99485913	    -16.25828062	     -0.28376053	     11.84050490	     -1.43504479	     -2.32125592	      7.16505906	      2.18574458	      6.39781925	    -43.27345831	     -0.75526433	      9.67687230	     16.32249401	      4.53246579	    -25.23694118	     -0.03261998	      3.04928181	     -0.65676088	    -14.94717203	     -1.30227981	     49.49368470	     89.95437384	      0.00000000	      0.00000000	     -2.63745034	      8.32975369	     10.17877512	     19.37586358	     89.95437384	      0.00000000	      0.00000000
      0.48000000	     15.20198905	     -1.89784335	     -0.50311719	     -0.02032014	      0.94789237	      1.45049615	    -19.09968409	      4.95676273	    -11.77387428	    -15.93595175	     -0.27813483	     12.55439428	     -1.49160157	     -2.47982192	      7.98620766	      2.14840313	      7.54671428	    -40.32983885	     -0.70388847	      9.74602847	     15.63972014	      4.27970690	    -25.08589055	     -0.28040631	      3.34140689	     -0.47735152	    -15.27559780	     -1.43830536	     51.54867504	     89.95437384	      0.00000000	      0.00000000	     -3.32275128	      8.42155426	     10.59720945	     18.11125541	     89.95437384	      0.00000000	      0.00000000
      0.49000000	     15.39362386	     -1.61985802	     -0.81838489	     -0.00642914	      0.94630911	      1.45120943	    -20.48189003	      4.63037391	    -11.54313070	    -15.49759682	     -0.27048409	     12.91330534	     -1.65910399	     -2.65571990	      8.13093879	      1.92563377	      8.80154675	    -36.88564591	     -0.64377597	      9.35426063	     14.45066560	      3.67095303	    -25.25296138	     -0.73528198	      3.52643644	     -0.22069921	    -15.50915131	     -1.48537906	     53.40725219	     89.95437384	      0.00000000	      0.00000000	     -4.22530752	      8.52587157	     11.28254233	     17.31384441	     89.95437384	      0.00000000	      0.00000000
      0.50000000	     15.39309914	     -1.41791498	     -0.93440712	      0.00744193	      0.94414688	      1.45160096	    -21.63075454	      4.44076447	    -11.38330350	    -15.13611495	     -0.26417504	     13.43369596	     -1.75357189	     -2.84116231	      8.52402639	      1.75859799	      9.97848017	    -33.50984586	     -0.58485714	      8.91550751	     12.78554671	      2.95156990	    -25.18843719	     -1.02703713	      3.60149406	     -0.02623989	    -15.79612300	     -1.47364414	     55.17991444	     89.95437384	      0.00000000	      0.00000000	     -5.11078181	      8.65480828	     11.58118992	     16.56910934	     89.95437384	      0.00000000	      0.00000000
      0.51000000	     15.39309954	     -1.36903251	     -1.02525880	      0.02141396	      0.94179700	      1.45203239	    -22.82391087	      4.46373104	    -10.93519088	    -14.68509989	     -0.25630334	     13.65985878	     -2.40412700	     -4.08657775	      8.86558050	      1.83817649	     11.51462094	    -30.11722668	     -0.52564477	      7.95871447	     11.05625516	     -2.92434330	    -25.13964757	     -1.15068804	      3.71330912	      0.13547063	    -16.12589031	     -1.39761200	     56.90348323	     89.95437384	      0.00000000	      0.00000000	     -5.90193405	      8.68885296	     12.55625424	     15.78974405	     89.95437384	      0.00000000	      0.00000000
      0.52000000	     15.32119498	     -1.11235407	     -1.15235821	      0.03549586	      0.93926975	      1.45227527	    -23.80590626	      4.15528894	    -10.90529795	    -14.54437712	     -0.25384727	     14.15588739	     -2.25057514	     -4.16180743	      9.08854905	      1.54729969	     13.02721288	    -26.48301674	     -0.46221584	      7.21040341	      8.81318490	     -3.25002340	    -24.99041299	     -1.49258702	      3.78008861	      0.28688855	    -16.30668697	     -1.52894142	     58.44638579	     89.95437384	      0.00000000	      0.00000000	     -6.80984189	      8.81902471	     12.62754165	     15.21501962	     89.95437384	      0.00000000	      0.00000000
      0.53000000	     15.27336154	     -0.87127825	     -1.31594082	      0.04979133	      0.93663802	      1.45244666	    -24.76167968	      3.82190592	    -10.82599384	    -14.54060639	     -0.25378146	     14.70685818	     -2.07055660	     -4.26242859	      9.24361996	      1.29245748	     14.90526966	    -23.00922633	     -0.40158676	      6.46511759	      6.02616008	     -3.73222874	    -24.82896082	     -1.82636619	      3.91558023	      0.36914038	    -16.56555300	     -1.49305498	     59.87411221	     89.95437384	      0.00000000	      0.00000000	     -7.80027658	      8.93910736	     12.69506597	     14.90911228	     89.95437384	      0.00000000	      0.00000000
      0.54000000	     15.24083010	     -0.74204390	     -1.57962596	      0.06433127	      0.93385450	      1.45265084	    -25.68348354	      3.49387011	    -10.85497020	    -14.66582568	     -0.25596695	     15.19700552	     -1.20317919	     -4.53857618	      9.51136158	      1.40298397	     18.00319793	    -20.21866661	     -0.35288230	      5.68003526	      1.38915163	     -5.13800474	    -24.66081958	     -2.05665773	      4.18470859	      0.38011224	    -16.80043081	     -1.67331924	     61.31413146	     89.95437384	      0.00000000	      0.00000000	     -8.70884239	      8.98473048	     12.92406807	     14.53180703	     89.95437384	      0.00000000	      0.00000000
      0.55000000	     15.13310179	     -0.35655480	     -1.86465798	      0.07869752	      0.93105297	      1.45239235	    -26.37821251	      2.87712587	    -10.80693514	    -15.04220550	     -0.26253601	     15.69519972	     -1.14252666	     -4.68640052	      9.75126587	      0.90894924	     20.29272699	    -17.45083381	     -0.30457451	      5.12074215	     -1.50122358	     -5.83819784	    -24.44853524	     -2.52504087	      4.41159662	      0.33542168	    -17.08275168	     -1.74099323	     62.65403626	     89.95437384	      0.00000000	      0.00000000	     -9.40206359	      8.98671439	     13.31375980	     13.97986222	     89.95437384	      0.00000000	      0.00000000
      0.56000000	     15.08311520	     -0.03155310	     -2.18997977	      0.09326744	      0.92822436	      1.45200659	    -27.00250879	      2.20468764	    -10.91968612	    -15.71894651	     -0.27434737	     16.18725533	     -0.44426959	     -5.12878707	     10.13005113	      0.66935381	     23.23237354	    -15.67729594	     -0.27362043	      4.58781783	     -5.89473313	     -6.99498867	    -24.27587459	     -2.91742578	      4.65216547	      0.27141916	    -17.34994101	     -1.81228599	     63.90094167	     89.95437384	      0.00000000	      0.00000000	    -10.06111206	      8.92076330	     13.96558219	     13.41391365	     89.95437384	      0.00000000	      0.00000000
